P1
# mangledbrot
40 40
00000000 00000000 00000000 00000010 00000000 
00000000 00000000 00000000 00000000 00000000 
00000000 00000000 00000000 00000000 00000000 
00000000 00000000 00000000 00001000 00000000 
00000000 00000000 00000000 00111100 00000000 
00000000 00000000 00000000 00111100 00000000 
00000000 00000000 00000000 00111100 00000000 
00000000 00000000 00000000 00000000 00000000 
00000000 00000000 00001001 11111111 10000000 
00000000 00000000 00011111 11111111 11111000 
00000000 00000000 00001111 11111111 11111000 
00000000 00000000 00011111 11111111 11110000 
00000000 00000000 00111111 11111111 11111000 
00000000 00000000 01111111 11111111 11111110 
00000000 00000000 01111111 11111111 11111100 
00000001 01100000 11111111 11111111 11111100 
00000001 11111100 11111111 11111111 11111100 
00000011 11111110 11111111 11111111 11111100 
00000011 11111110 11111111 11111111 11111100 
00001011 11111110 11111111 11111111 11111000 
11111111 11111111 11111111 11111111 11110000 
00001011 11111110 11111111 11111111 11111000 
00000011 11111110 11111111 11111111 11111100 
00000011 11111110 11111111 11111111 11111100 
00000001 11111100 11111111 11111111 11111100 
00000001 01100000 11111111 11111111 11111100 
00000000 00000000 01111111 11111111 11111100 
00000000 00000000 01111111 11111111 11111110 
00000000 00000000 00111111 11111111 11111000 
00000000 00000000 00011111 11111111 11110000 
00000000 00000000 00001111 11111111 11111000 
00000000 00000000 00011111 11111111 11111000 
00000000 00000000 00001001 11111111 10000000 
00000000 00000000 00000000 00000000 00000000 
00000000 00000000 00000000 00111100 00000000 
00000000 00000000 00000000 00111100 00000000 
00000000 00000000 00000000 00111100 00000000 
00000000 00000000 00000000 00001000 00000000 
00000000 00000000 00000000 00000000 00000000 
00000000 00000000 00000000 00000000 00000000 
