<?xml version="1.0"?>
<!-- Generated by SVGo -->
<svg width="500" height="500"
     
     xmlns="http://www.w3.org/2000/svg"
     xmlns:xlink="http://www.w3.org/1999/xlink">
<title>svg demo</title>
<desc>svg description</desc>
<g style="stroke:yellow;">
<line x1="100" y1="100" x2="100" y2="500" />
<line x1="110" y1="100" x2="110" y2="500" />
<line x1="120" y1="100" x2="120" y2="500" />
<line x1="130" y1="100" x2="130" y2="500" />
<line x1="140" y1="100" x2="140" y2="500" />
<line x1="150" y1="100" x2="150" y2="500" />
<line x1="160" y1="100" x2="160" y2="500" />
<line x1="170" y1="100" x2="170" y2="500" />
<line x1="180" y1="100" x2="180" y2="500" />
<line x1="190" y1="100" x2="190" y2="500" />
<line x1="200" y1="100" x2="200" y2="500" />
<line x1="210" y1="100" x2="210" y2="500" />
<line x1="220" y1="100" x2="220" y2="500" />
<line x1="230" y1="100" x2="230" y2="500" />
<line x1="240" y1="100" x2="240" y2="500" />
<line x1="250" y1="100" x2="250" y2="500" />
<line x1="260" y1="100" x2="260" y2="500" />
<line x1="270" y1="100" x2="270" y2="500" />
<line x1="280" y1="100" x2="280" y2="500" />
<line x1="290" y1="100" x2="290" y2="500" />
<line x1="300" y1="100" x2="300" y2="500" />
<line x1="310" y1="100" x2="310" y2="500" />
<line x1="320" y1="100" x2="320" y2="500" />
<line x1="330" y1="100" x2="330" y2="500" />
<line x1="340" y1="100" x2="340" y2="500" />
<line x1="350" y1="100" x2="350" y2="500" />
<line x1="360" y1="100" x2="360" y2="500" />
<line x1="370" y1="100" x2="370" y2="500" />
<line x1="380" y1="100" x2="380" y2="500" />
<line x1="390" y1="100" x2="390" y2="500" />
<line x1="400" y1="100" x2="400" y2="500" />
<line x1="410" y1="100" x2="410" y2="500" />
<line x1="420" y1="100" x2="420" y2="500" />
<line x1="430" y1="100" x2="430" y2="500" />
<line x1="440" y1="100" x2="440" y2="500" />
<line x1="450" y1="100" x2="450" y2="500" />
<line x1="460" y1="100" x2="460" y2="500" />
<line x1="470" y1="100" x2="470" y2="500" />
<line x1="480" y1="100" x2="480" y2="500" />
<line x1="490" y1="100" x2="490" y2="500" />
<line x1="500" y1="100" x2="500" y2="500" />
<line x1="100" y1="100" x2="500" y2="100" />
<line x1="100" y1="110" x2="500" y2="110" />
<line x1="100" y1="120" x2="500" y2="120" />
<line x1="100" y1="130" x2="500" y2="130" />
<line x1="100" y1="140" x2="500" y2="140" />
<line x1="100" y1="150" x2="500" y2="150" />
<line x1="100" y1="160" x2="500" y2="160" />
<line x1="100" y1="170" x2="500" y2="170" />
<line x1="100" y1="180" x2="500" y2="180" />
<line x1="100" y1="190" x2="500" y2="190" />
<line x1="100" y1="200" x2="500" y2="200" />
<line x1="100" y1="210" x2="500" y2="210" />
<line x1="100" y1="220" x2="500" y2="220" />
<line x1="100" y1="230" x2="500" y2="230" />
<line x1="100" y1="240" x2="500" y2="240" />
<line x1="100" y1="250" x2="500" y2="250" />
<line x1="100" y1="260" x2="500" y2="260" />
<line x1="100" y1="270" x2="500" y2="270" />
<line x1="100" y1="280" x2="500" y2="280" />
<line x1="100" y1="290" x2="500" y2="290" />
<line x1="100" y1="300" x2="500" y2="300" />
<line x1="100" y1="310" x2="500" y2="310" />
<line x1="100" y1="320" x2="500" y2="320" />
<line x1="100" y1="330" x2="500" y2="330" />
<line x1="100" y1="340" x2="500" y2="340" />
<line x1="100" y1="350" x2="500" y2="350" />
<line x1="100" y1="360" x2="500" y2="360" />
<line x1="100" y1="370" x2="500" y2="370" />
<line x1="100" y1="380" x2="500" y2="380" />
<line x1="100" y1="390" x2="500" y2="390" />
<line x1="100" y1="400" x2="500" y2="400" />
<line x1="100" y1="410" x2="500" y2="410" />
<line x1="100" y1="420" x2="500" y2="420" />
<line x1="100" y1="430" x2="500" y2="430" />
<line x1="100" y1="440" x2="500" y2="440" />
<line x1="100" y1="450" x2="500" y2="450" />
<line x1="100" y1="460" x2="500" y2="460" />
<line x1="100" y1="470" x2="500" y2="470" />
<line x1="100" y1="480" x2="500" y2="480" />
<line x1="100" y1="490" x2="500" y2="490" />
<line x1="100" y1="500" x2="500" y2="500" />
</g>
<line x1="0" y1="0" x2="0" y2="499" stroke='blue' stroke-width='1px' fill='none' />
<line x1="4" y1="0" x2="0" y2="499" stroke='blue' stroke-width='1px' fill='none' />
<line x1="8" y1="0" x2="0" y2="499" stroke='blue' stroke-width='1px' fill='none' />
<line x1="12" y1="0" x2="0" y2="499" stroke='blue' stroke-width='1px' fill='none' />
<line x1="16" y1="0" x2="0" y2="499" stroke='blue' stroke-width='1px' fill='none' />
<line x1="20" y1="0" x2="0" y2="499" stroke='blue' stroke-width='1px' fill='none' />
<line x1="24" y1="0" x2="0" y2="499" stroke='blue' stroke-width='1px' fill='none' />
<line x1="28" y1="0" x2="0" y2="499" stroke='blue' stroke-width='1px' fill='none' />
<line x1="32" y1="0" x2="0" y2="499" stroke='blue' stroke-width='1px' fill='none' />
<line x1="36" y1="0" x2="0" y2="499" stroke='blue' stroke-width='1px' fill='none' />
<line x1="40" y1="0" x2="0" y2="499" stroke='blue' stroke-width='1px' fill='none' />
<line x1="44" y1="0" x2="0" y2="499" stroke='blue' stroke-width='1px' fill='none' />
<line x1="48" y1="0" x2="0" y2="499" stroke='blue' stroke-width='1px' fill='none' />
<line x1="52" y1="0" x2="0" y2="499" stroke='blue' stroke-width='1px' fill='none' />
<line x1="56" y1="0" x2="0" y2="499" stroke='blue' stroke-width='1px' fill='none' />
<line x1="60" y1="0" x2="0" y2="499" stroke='blue' stroke-width='1px' fill='none' />
<line x1="64" y1="0" x2="0" y2="499" stroke='blue' stroke-width='1px' fill='none' />
<line x1="68" y1="0" x2="0" y2="499" stroke='blue' stroke-width='1px' fill='none' />
<line x1="72" y1="0" x2="0" y2="499" stroke='blue' stroke-width='1px' fill='none' />
<line x1="76" y1="0" x2="0" y2="499" stroke='blue' stroke-width='1px' fill='none' />
<line x1="80" y1="0" x2="0" y2="499" stroke='blue' stroke-width='1px' fill='none' />
<line x1="84" y1="0" x2="0" y2="499" stroke='blue' stroke-width='1px' fill='none' />
<line x1="88" y1="0" x2="0" y2="499" stroke='blue' stroke-width='1px' fill='none' />
<line x1="92" y1="0" x2="0" y2="499" stroke='blue' stroke-width='1px' fill='none' />
<line x1="96" y1="0" x2="0" y2="499" stroke='blue' stroke-width='1px' fill='none' />
<line x1="100" y1="0" x2="0" y2="499" stroke='blue' stroke-width='1px' fill='none' />
<line x1="104" y1="0" x2="0" y2="499" stroke='blue' stroke-width='1px' fill='none' />
<line x1="108" y1="0" x2="0" y2="499" stroke='blue' stroke-width='1px' fill='none' />
<line x1="112" y1="0" x2="0" y2="499" stroke='blue' stroke-width='1px' fill='none' />
<line x1="116" y1="0" x2="0" y2="499" stroke='blue' stroke-width='1px' fill='none' />
<line x1="120" y1="0" x2="0" y2="499" stroke='blue' stroke-width='1px' fill='none' />
<line x1="124" y1="0" x2="0" y2="499" stroke='blue' stroke-width='1px' fill='none' />
<line x1="128" y1="0" x2="0" y2="499" stroke='blue' stroke-width='1px' fill='none' />
<line x1="132" y1="0" x2="0" y2="499" stroke='blue' stroke-width='1px' fill='none' />
<line x1="136" y1="0" x2="0" y2="499" stroke='blue' stroke-width='1px' fill='none' />
<line x1="140" y1="0" x2="0" y2="499" stroke='blue' stroke-width='1px' fill='none' />
<line x1="144" y1="0" x2="0" y2="499" stroke='blue' stroke-width='1px' fill='none' />
<line x1="148" y1="0" x2="0" y2="499" stroke='blue' stroke-width='1px' fill='none' />
<line x1="152" y1="0" x2="0" y2="499" stroke='blue' stroke-width='1px' fill='none' />
<line x1="156" y1="0" x2="0" y2="499" stroke='blue' stroke-width='1px' fill='none' />
<line x1="160" y1="0" x2="0" y2="499" stroke='blue' stroke-width='1px' fill='none' />
<line x1="164" y1="0" x2="0" y2="499" stroke='blue' stroke-width='1px' fill='none' />
<line x1="168" y1="0" x2="0" y2="499" stroke='blue' stroke-width='1px' fill='none' />
<line x1="172" y1="0" x2="0" y2="499" stroke='blue' stroke-width='1px' fill='none' />
<line x1="176" y1="0" x2="0" y2="499" stroke='blue' stroke-width='1px' fill='none' />
<line x1="180" y1="0" x2="0" y2="499" stroke='blue' stroke-width='1px' fill='none' />
<line x1="184" y1="0" x2="0" y2="499" stroke='blue' stroke-width='1px' fill='none' />
<line x1="188" y1="0" x2="0" y2="499" stroke='blue' stroke-width='1px' fill='none' />
<line x1="192" y1="0" x2="0" y2="499" stroke='blue' stroke-width='1px' fill='none' />
<line x1="196" y1="0" x2="0" y2="499" stroke='blue' stroke-width='1px' fill='none' />
<line x1="200" y1="0" x2="0" y2="499" stroke='blue' stroke-width='1px' fill='none' />
<line x1="204" y1="0" x2="0" y2="499" stroke='blue' stroke-width='1px' fill='none' />
<line x1="208" y1="0" x2="0" y2="499" stroke='blue' stroke-width='1px' fill='none' />
<line x1="212" y1="0" x2="0" y2="499" stroke='blue' stroke-width='1px' fill='none' />
<line x1="216" y1="0" x2="0" y2="499" stroke='blue' stroke-width='1px' fill='none' />
<line x1="220" y1="0" x2="0" y2="499" stroke='blue' stroke-width='1px' fill='none' />
<line x1="224" y1="0" x2="0" y2="499" stroke='blue' stroke-width='1px' fill='none' />
<line x1="228" y1="0" x2="0" y2="499" stroke='blue' stroke-width='1px' fill='none' />
<line x1="232" y1="0" x2="0" y2="499" stroke='blue' stroke-width='1px' fill='none' />
<line x1="236" y1="0" x2="0" y2="499" stroke='blue' stroke-width='1px' fill='none' />
<line x1="240" y1="0" x2="0" y2="499" stroke='blue' stroke-width='1px' fill='none' />
<line x1="244" y1="0" x2="0" y2="499" stroke='blue' stroke-width='1px' fill='none' />
<line x1="248" y1="0" x2="0" y2="499" stroke='blue' stroke-width='1px' fill='none' />
<line x1="252" y1="0" x2="0" y2="499" stroke='blue' stroke-width='1px' fill='none' />
<line x1="256" y1="0" x2="0" y2="499" stroke='blue' stroke-width='1px' fill='none' />
<line x1="260" y1="0" x2="0" y2="499" stroke='blue' stroke-width='1px' fill='none' />
<line x1="264" y1="0" x2="0" y2="499" stroke='blue' stroke-width='1px' fill='none' />
<line x1="268" y1="0" x2="0" y2="499" stroke='blue' stroke-width='1px' fill='none' />
<line x1="272" y1="0" x2="0" y2="499" stroke='blue' stroke-width='1px' fill='none' />
<line x1="276" y1="0" x2="0" y2="499" stroke='blue' stroke-width='1px' fill='none' />
<line x1="280" y1="0" x2="0" y2="499" stroke='blue' stroke-width='1px' fill='none' />
<line x1="284" y1="0" x2="0" y2="499" stroke='blue' stroke-width='1px' fill='none' />
<line x1="288" y1="0" x2="0" y2="499" stroke='blue' stroke-width='1px' fill='none' />
<line x1="292" y1="0" x2="0" y2="499" stroke='blue' stroke-width='1px' fill='none' />
<line x1="296" y1="0" x2="0" y2="499" stroke='blue' stroke-width='1px' fill='none' />
<line x1="300" y1="0" x2="0" y2="499" stroke='blue' stroke-width='1px' fill='none' />
<line x1="304" y1="0" x2="0" y2="499" stroke='blue' stroke-width='1px' fill='none' />
<line x1="308" y1="0" x2="0" y2="499" stroke='blue' stroke-width='1px' fill='none' />
<line x1="312" y1="0" x2="0" y2="499" stroke='blue' stroke-width='1px' fill='none' />
<line x1="316" y1="0" x2="0" y2="499" stroke='blue' stroke-width='1px' fill='none' />
<line x1="320" y1="0" x2="0" y2="499" stroke='blue' stroke-width='1px' fill='none' />
<line x1="324" y1="0" x2="0" y2="499" stroke='blue' stroke-width='1px' fill='none' />
<line x1="328" y1="0" x2="0" y2="499" stroke='blue' stroke-width='1px' fill='none' />
<line x1="332" y1="0" x2="0" y2="499" stroke='blue' stroke-width='1px' fill='none' />
<line x1="336" y1="0" x2="0" y2="499" stroke='blue' stroke-width='1px' fill='none' />
<line x1="340" y1="0" x2="0" y2="499" stroke='blue' stroke-width='1px' fill='none' />
<line x1="344" y1="0" x2="0" y2="499" stroke='blue' stroke-width='1px' fill='none' />
<line x1="348" y1="0" x2="0" y2="499" stroke='blue' stroke-width='1px' fill='none' />
<line x1="352" y1="0" x2="0" y2="499" stroke='blue' stroke-width='1px' fill='none' />
<line x1="356" y1="0" x2="0" y2="499" stroke='blue' stroke-width='1px' fill='none' />
<line x1="360" y1="0" x2="0" y2="499" stroke='blue' stroke-width='1px' fill='none' />
<line x1="364" y1="0" x2="0" y2="499" stroke='blue' stroke-width='1px' fill='none' />
<line x1="368" y1="0" x2="0" y2="499" stroke='blue' stroke-width='1px' fill='none' />
<line x1="372" y1="0" x2="0" y2="499" stroke='blue' stroke-width='1px' fill='none' />
<line x1="376" y1="0" x2="0" y2="499" stroke='blue' stroke-width='1px' fill='none' />
<line x1="380" y1="0" x2="0" y2="499" stroke='blue' stroke-width='1px' fill='none' />
<line x1="384" y1="0" x2="0" y2="499" stroke='blue' stroke-width='1px' fill='none' />
<line x1="388" y1="0" x2="0" y2="499" stroke='blue' stroke-width='1px' fill='none' />
<line x1="392" y1="0" x2="0" y2="499" stroke='blue' stroke-width='1px' fill='none' />
<line x1="396" y1="0" x2="0" y2="499" stroke='blue' stroke-width='1px' fill='none' />
<line x1="400" y1="0" x2="0" y2="499" stroke='blue' stroke-width='1px' fill='none' />
<line x1="404" y1="0" x2="0" y2="499" stroke='blue' stroke-width='1px' fill='none' />
<line x1="408" y1="0" x2="0" y2="499" stroke='blue' stroke-width='1px' fill='none' />
<line x1="412" y1="0" x2="0" y2="499" stroke='blue' stroke-width='1px' fill='none' />
<line x1="416" y1="0" x2="0" y2="499" stroke='blue' stroke-width='1px' fill='none' />
<line x1="420" y1="0" x2="0" y2="499" stroke='blue' stroke-width='1px' fill='none' />
<line x1="424" y1="0" x2="0" y2="499" stroke='blue' stroke-width='1px' fill='none' />
<line x1="428" y1="0" x2="0" y2="499" stroke='blue' stroke-width='1px' fill='none' />
<line x1="432" y1="0" x2="0" y2="499" stroke='blue' stroke-width='1px' fill='none' />
<line x1="436" y1="0" x2="0" y2="499" stroke='blue' stroke-width='1px' fill='none' />
<line x1="440" y1="0" x2="0" y2="499" stroke='blue' stroke-width='1px' fill='none' />
<line x1="444" y1="0" x2="0" y2="499" stroke='blue' stroke-width='1px' fill='none' />
<line x1="448" y1="0" x2="0" y2="499" stroke='blue' stroke-width='1px' fill='none' />
<line x1="452" y1="0" x2="0" y2="499" stroke='blue' stroke-width='1px' fill='none' />
<line x1="456" y1="0" x2="0" y2="499" stroke='blue' stroke-width='1px' fill='none' />
<line x1="460" y1="0" x2="0" y2="499" stroke='blue' stroke-width='1px' fill='none' />
<line x1="464" y1="0" x2="0" y2="499" stroke='blue' stroke-width='1px' fill='none' />
<line x1="468" y1="0" x2="0" y2="499" stroke='blue' stroke-width='1px' fill='none' />
<line x1="472" y1="0" x2="0" y2="499" stroke='blue' stroke-width='1px' fill='none' />
<line x1="476" y1="0" x2="0" y2="499" stroke='blue' stroke-width='1px' fill='none' />
<line x1="480" y1="0" x2="0" y2="499" stroke='blue' stroke-width='1px' fill='none' />
<line x1="484" y1="0" x2="0" y2="499" stroke='blue' stroke-width='1px' fill='none' />
<line x1="488" y1="0" x2="0" y2="499" stroke='blue' stroke-width='1px' fill='none' />
<line x1="492" y1="0" x2="0" y2="499" stroke='blue' stroke-width='1px' fill='none' />
<line x1="496" y1="0" x2="0" y2="499" stroke='blue' stroke-width='1px' fill='none' />
<line x1="0" y1="0" x2="499" y2="0" stroke='green' stroke-width='1px' fill='pink' />
<line x1="0" y1="4" x2="499" y2="0" stroke='green' stroke-width='1px' fill='pink' />
<line x1="0" y1="8" x2="499" y2="0" stroke='green' stroke-width='1px' fill='pink' />
<line x1="0" y1="12" x2="499" y2="0" stroke='green' stroke-width='1px' fill='pink' />
<line x1="0" y1="16" x2="499" y2="0" stroke='green' stroke-width='1px' fill='pink' />
<line x1="0" y1="20" x2="499" y2="0" stroke='green' stroke-width='1px' fill='pink' />
<line x1="0" y1="24" x2="499" y2="0" stroke='green' stroke-width='1px' fill='pink' />
<line x1="0" y1="28" x2="499" y2="0" stroke='green' stroke-width='1px' fill='pink' />
<line x1="0" y1="32" x2="499" y2="0" stroke='green' stroke-width='1px' fill='pink' />
<line x1="0" y1="36" x2="499" y2="0" stroke='green' stroke-width='1px' fill='pink' />
<line x1="0" y1="40" x2="499" y2="0" stroke='green' stroke-width='1px' fill='pink' />
<line x1="0" y1="44" x2="499" y2="0" stroke='green' stroke-width='1px' fill='pink' />
<line x1="0" y1="48" x2="499" y2="0" stroke='green' stroke-width='1px' fill='pink' />
<line x1="0" y1="52" x2="499" y2="0" stroke='green' stroke-width='1px' fill='pink' />
<line x1="0" y1="56" x2="499" y2="0" stroke='green' stroke-width='1px' fill='pink' />
<line x1="0" y1="60" x2="499" y2="0" stroke='green' stroke-width='1px' fill='pink' />
<line x1="0" y1="64" x2="499" y2="0" stroke='green' stroke-width='1px' fill='pink' />
<line x1="0" y1="68" x2="499" y2="0" stroke='green' stroke-width='1px' fill='pink' />
<line x1="0" y1="72" x2="499" y2="0" stroke='green' stroke-width='1px' fill='pink' />
<line x1="0" y1="76" x2="499" y2="0" stroke='green' stroke-width='1px' fill='pink' />
<line x1="0" y1="80" x2="499" y2="0" stroke='green' stroke-width='1px' fill='pink' />
<line x1="0" y1="84" x2="499" y2="0" stroke='green' stroke-width='1px' fill='pink' />
<line x1="0" y1="88" x2="499" y2="0" stroke='green' stroke-width='1px' fill='pink' />
<line x1="0" y1="92" x2="499" y2="0" stroke='green' stroke-width='1px' fill='pink' />
<line x1="0" y1="96" x2="499" y2="0" stroke='green' stroke-width='1px' fill='pink' />
<line x1="0" y1="100" x2="499" y2="0" stroke='green' stroke-width='1px' fill='pink' />
<line x1="0" y1="104" x2="499" y2="0" stroke='green' stroke-width='1px' fill='pink' />
<line x1="0" y1="108" x2="499" y2="0" stroke='green' stroke-width='1px' fill='pink' />
<line x1="0" y1="112" x2="499" y2="0" stroke='green' stroke-width='1px' fill='pink' />
<line x1="0" y1="116" x2="499" y2="0" stroke='green' stroke-width='1px' fill='pink' />
<line x1="0" y1="120" x2="499" y2="0" stroke='green' stroke-width='1px' fill='pink' />
<line x1="0" y1="124" x2="499" y2="0" stroke='green' stroke-width='1px' fill='pink' />
<line x1="0" y1="128" x2="499" y2="0" stroke='green' stroke-width='1px' fill='pink' />
<line x1="0" y1="132" x2="499" y2="0" stroke='green' stroke-width='1px' fill='pink' />
<line x1="0" y1="136" x2="499" y2="0" stroke='green' stroke-width='1px' fill='pink' />
<line x1="0" y1="140" x2="499" y2="0" stroke='green' stroke-width='1px' fill='pink' />
<line x1="0" y1="144" x2="499" y2="0" stroke='green' stroke-width='1px' fill='pink' />
<line x1="0" y1="148" x2="499" y2="0" stroke='green' stroke-width='1px' fill='pink' />
<line x1="0" y1="152" x2="499" y2="0" stroke='green' stroke-width='1px' fill='pink' />
<line x1="0" y1="156" x2="499" y2="0" stroke='green' stroke-width='1px' fill='pink' />
<line x1="0" y1="160" x2="499" y2="0" stroke='green' stroke-width='1px' fill='pink' />
<line x1="0" y1="164" x2="499" y2="0" stroke='green' stroke-width='1px' fill='pink' />
<line x1="0" y1="168" x2="499" y2="0" stroke='green' stroke-width='1px' fill='pink' />
<line x1="0" y1="172" x2="499" y2="0" stroke='green' stroke-width='1px' fill='pink' />
<line x1="0" y1="176" x2="499" y2="0" stroke='green' stroke-width='1px' fill='pink' />
<line x1="0" y1="180" x2="499" y2="0" stroke='green' stroke-width='1px' fill='pink' />
<line x1="0" y1="184" x2="499" y2="0" stroke='green' stroke-width='1px' fill='pink' />
<line x1="0" y1="188" x2="499" y2="0" stroke='green' stroke-width='1px' fill='pink' />
<line x1="0" y1="192" x2="499" y2="0" stroke='green' stroke-width='1px' fill='pink' />
<line x1="0" y1="196" x2="499" y2="0" stroke='green' stroke-width='1px' fill='pink' />
<line x1="0" y1="200" x2="499" y2="0" stroke='green' stroke-width='1px' fill='pink' />
<line x1="0" y1="204" x2="499" y2="0" stroke='green' stroke-width='1px' fill='pink' />
<line x1="0" y1="208" x2="499" y2="0" stroke='green' stroke-width='1px' fill='pink' />
<line x1="0" y1="212" x2="499" y2="0" stroke='green' stroke-width='1px' fill='pink' />
<line x1="0" y1="216" x2="499" y2="0" stroke='green' stroke-width='1px' fill='pink' />
<line x1="0" y1="220" x2="499" y2="0" stroke='green' stroke-width='1px' fill='pink' />
<line x1="0" y1="224" x2="499" y2="0" stroke='green' stroke-width='1px' fill='pink' />
<line x1="0" y1="228" x2="499" y2="0" stroke='green' stroke-width='1px' fill='pink' />
<line x1="0" y1="232" x2="499" y2="0" stroke='green' stroke-width='1px' fill='pink' />
<line x1="0" y1="236" x2="499" y2="0" stroke='green' stroke-width='1px' fill='pink' />
<line x1="0" y1="240" x2="499" y2="0" stroke='green' stroke-width='1px' fill='pink' />
<line x1="0" y1="244" x2="499" y2="0" stroke='green' stroke-width='1px' fill='pink' />
<line x1="0" y1="248" x2="499" y2="0" stroke='green' stroke-width='1px' fill='pink' />
<line x1="0" y1="252" x2="499" y2="0" stroke='green' stroke-width='1px' fill='pink' />
<line x1="0" y1="256" x2="499" y2="0" stroke='green' stroke-width='1px' fill='pink' />
<line x1="0" y1="260" x2="499" y2="0" stroke='green' stroke-width='1px' fill='pink' />
<line x1="0" y1="264" x2="499" y2="0" stroke='green' stroke-width='1px' fill='pink' />
<line x1="0" y1="268" x2="499" y2="0" stroke='green' stroke-width='1px' fill='pink' />
<line x1="0" y1="272" x2="499" y2="0" stroke='green' stroke-width='1px' fill='pink' />
<line x1="0" y1="276" x2="499" y2="0" stroke='green' stroke-width='1px' fill='pink' />
<line x1="0" y1="280" x2="499" y2="0" stroke='green' stroke-width='1px' fill='pink' />
<line x1="0" y1="284" x2="499" y2="0" stroke='green' stroke-width='1px' fill='pink' />
<line x1="0" y1="288" x2="499" y2="0" stroke='green' stroke-width='1px' fill='pink' />
<line x1="0" y1="292" x2="499" y2="0" stroke='green' stroke-width='1px' fill='pink' />
<line x1="0" y1="296" x2="499" y2="0" stroke='green' stroke-width='1px' fill='pink' />
<line x1="0" y1="300" x2="499" y2="0" stroke='green' stroke-width='1px' fill='pink' />
<line x1="0" y1="304" x2="499" y2="0" stroke='green' stroke-width='1px' fill='pink' />
<line x1="0" y1="308" x2="499" y2="0" stroke='green' stroke-width='1px' fill='pink' />
<line x1="0" y1="312" x2="499" y2="0" stroke='green' stroke-width='1px' fill='pink' />
<line x1="0" y1="316" x2="499" y2="0" stroke='green' stroke-width='1px' fill='pink' />
<line x1="0" y1="320" x2="499" y2="0" stroke='green' stroke-width='1px' fill='pink' />
<line x1="0" y1="324" x2="499" y2="0" stroke='green' stroke-width='1px' fill='pink' />
<line x1="0" y1="328" x2="499" y2="0" stroke='green' stroke-width='1px' fill='pink' />
<line x1="0" y1="332" x2="499" y2="0" stroke='green' stroke-width='1px' fill='pink' />
<line x1="0" y1="336" x2="499" y2="0" stroke='green' stroke-width='1px' fill='pink' />
<line x1="0" y1="340" x2="499" y2="0" stroke='green' stroke-width='1px' fill='pink' />
<line x1="0" y1="344" x2="499" y2="0" stroke='green' stroke-width='1px' fill='pink' />
<line x1="0" y1="348" x2="499" y2="0" stroke='green' stroke-width='1px' fill='pink' />
<line x1="0" y1="352" x2="499" y2="0" stroke='green' stroke-width='1px' fill='pink' />
<line x1="0" y1="356" x2="499" y2="0" stroke='green' stroke-width='1px' fill='pink' />
<line x1="0" y1="360" x2="499" y2="0" stroke='green' stroke-width='1px' fill='pink' />
<line x1="0" y1="364" x2="499" y2="0" stroke='green' stroke-width='1px' fill='pink' />
<line x1="0" y1="368" x2="499" y2="0" stroke='green' stroke-width='1px' fill='pink' />
<line x1="0" y1="372" x2="499" y2="0" stroke='green' stroke-width='1px' fill='pink' />
<line x1="0" y1="376" x2="499" y2="0" stroke='green' stroke-width='1px' fill='pink' />
<line x1="0" y1="380" x2="499" y2="0" stroke='green' stroke-width='1px' fill='pink' />
<line x1="0" y1="384" x2="499" y2="0" stroke='green' stroke-width='1px' fill='pink' />
<line x1="0" y1="388" x2="499" y2="0" stroke='green' stroke-width='1px' fill='pink' />
<line x1="0" y1="392" x2="499" y2="0" stroke='green' stroke-width='1px' fill='pink' />
<line x1="0" y1="396" x2="499" y2="0" stroke='green' stroke-width='1px' fill='pink' />
<line x1="0" y1="400" x2="499" y2="0" stroke='green' stroke-width='1px' fill='pink' />
<line x1="0" y1="404" x2="499" y2="0" stroke='green' stroke-width='1px' fill='pink' />
<line x1="0" y1="408" x2="499" y2="0" stroke='green' stroke-width='1px' fill='pink' />
<line x1="0" y1="412" x2="499" y2="0" stroke='green' stroke-width='1px' fill='pink' />
<line x1="0" y1="416" x2="499" y2="0" stroke='green' stroke-width='1px' fill='pink' />
<line x1="0" y1="420" x2="499" y2="0" stroke='green' stroke-width='1px' fill='pink' />
<line x1="0" y1="424" x2="499" y2="0" stroke='green' stroke-width='1px' fill='pink' />
<line x1="0" y1="428" x2="499" y2="0" stroke='green' stroke-width='1px' fill='pink' />
<line x1="0" y1="432" x2="499" y2="0" stroke='green' stroke-width='1px' fill='pink' />
<line x1="0" y1="436" x2="499" y2="0" stroke='green' stroke-width='1px' fill='pink' />
<line x1="0" y1="440" x2="499" y2="0" stroke='green' stroke-width='1px' fill='pink' />
<line x1="0" y1="444" x2="499" y2="0" stroke='green' stroke-width='1px' fill='pink' />
<line x1="0" y1="448" x2="499" y2="0" stroke='green' stroke-width='1px' fill='pink' />
<line x1="0" y1="452" x2="499" y2="0" stroke='green' stroke-width='1px' fill='pink' />
<line x1="0" y1="456" x2="499" y2="0" stroke='green' stroke-width='1px' fill='pink' />
<line x1="0" y1="460" x2="499" y2="0" stroke='green' stroke-width='1px' fill='pink' />
<line x1="0" y1="464" x2="499" y2="0" stroke='green' stroke-width='1px' fill='pink' />
<line x1="0" y1="468" x2="499" y2="0" stroke='green' stroke-width='1px' fill='pink' />
<line x1="0" y1="472" x2="499" y2="0" stroke='green' stroke-width='1px' fill='pink' />
<line x1="0" y1="476" x2="499" y2="0" stroke='green' stroke-width='1px' fill='pink' />
<line x1="0" y1="480" x2="499" y2="0" stroke='green' stroke-width='1px' fill='pink' />
<line x1="0" y1="484" x2="499" y2="0" stroke='green' stroke-width='1px' fill='pink' />
<line x1="0" y1="488" x2="499" y2="0" stroke='green' stroke-width='1px' fill='pink' />
<line x1="0" y1="492" x2="499" y2="0" stroke='green' stroke-width='1px' fill='pink' />
<line x1="0" y1="496" x2="499" y2="0" stroke='green' stroke-width='1px' fill='pink' />
<g stroke='blue' stroke-width='0px' >
<circle cx="250" cy="480" r="1"  />
<circle cx="252" cy="478" r="1"  />
<circle cx="254" cy="476" r="1"  />
<circle cx="256" cy="474" r="1"  />
<circle cx="258" cy="472" r="1"  />
<circle cx="260" cy="470" r="1"  />
<circle cx="262" cy="468" r="1"  />
<circle cx="264" cy="466" r="1"  />
</g>
<circle cx="250" cy="250" r="120" stroke='green' stroke-width='1px' fill='pink' />
<ellipse cx="250" cy="250" rx="300" ry="60" stroke='blue' stroke-width='1px' fill='none' />
<polygon points="200,250 250,500 500,250 250,200" stroke='blue' stroke-width='1px' fill='none' />
<polyline points="100,400 150,410 200,390 225,400 250,350 300,400" stroke='red' stroke-width='1px' fill='none' />
<rect x="449" y="449" width="50" height="50" stroke='green' stroke-width='1px' fill='pink' />
<rect x="20" y="20" width="40" height="50" rx="10" ry="10" stroke='red' stroke-width='1px' fill='none' />
<rect x="400" y="200" width="40" height="40" stroke='red' stroke-width='1px' fill='none' />
<text x="300" y="300" stroke='green' stroke-width='1px' fill='pink' >Output Text</text>
<a xlink:href="/img/star.png" xlink:title="star">
<image x="300" y="340" width="40" height="40" xlink:href="/img/castle.png"  />
</a>
</svg>
